<svg xmlns="http://www.w3.org/2000/svg" version="1.0" viewBox="0 0 1024 1024.2" width="1024" height="1024.2"><path fill="#000d00" d="M0 54c0 53.4 0 54.2 4 52 8.6-4.6 12.8-22.6 9.4-41L12 57l8 9c14.4 16.2 22 38.2 22 64.4 0 13.8-3.4 21.4-14.2 32.6A176.2 176.2 0 0 0 10 188L0 205v59.6l9 14.6c5.6 8.8 14.6 19.4 23.4 27 7.8 7 15.4 15.6 16.8 19.2 5.6 13.4 1.8 33.4-9 46.4l-5.6 6.8-1.2-13.2C32 351.2 27.6 340 23.2 340c-3.4 0-15.8 13.6-20.2 22-2.4 4.6-3 10.6-2.6 24.6C1 406.4.8 406 12.2 403l5.4-1.4-2.6 10.8c-3 12.8-5.2 17.2-10.8 22.4C0 438.6 0 440.2 0 510.2V582l7 9.2a44 44 0 0 1 7 11.4c.2 1.4.8 6 1.8 10.6l1.6 8.2-8.8-1-8.6-1v18c0 16.2.6 18.6 5.8 26.8 3 4.8 8.4 11.2 11.6 14.4 5.6 5.2 6 5.4 9.2 2 3.6-4.2 7.2-18.2 7.4-28.4v-6.8l4.2 3.8A56 56 0 0 1 52 681.4c0 14-4.8 22.8-19.6 35.2-7.4 6-15.6 14.8-18.4 19.4l-9.4 15.2C.4 757.6 0 760.4 0 787.6V817l9 15c4.8 8.2 12.8 19.4 17.8 25 12.8 14 16 23.4 14.6 42.6a104 104 0 0 1-17.8 52.8c-8.8 12.6-12.6 14.8-10.2 6 3.2-11.2 1.4-26-4.2-34.4-2.8-4.4-6.2-8-7.2-8-1.2 0-2 19.8-2 54v54h17.8c13.2 0 18.4-.8 20.2-3 3.2-3.8 14-3.8 19.2 0 3 2.2 11 2.8 37.6 3h33.8l-4.8-5.2a58.8 58.8 0 0 0-30.2-14.8c-9.2 0-6.4-3 10.2-10.8 17.8-8.4 31.4-9.8 41.2-4.8 3.4 1.8 11.4 8 18 13.8s17.6 13 24.4 16.2c12.2 5.4 13.4 5.6 46.8 5.6h34.2l13.6-7.2a136 136 0 0 0 23.4-15.6 108 108 0 0 1 41.6-20.6l7-1.2v8.8a42.9 42.9 0 0 1-13.8 30.4l-6.6 5.4h49.6l14-12.8c7.8-7 16.2-17 19-22 4.4-8.6 4.6-9.6 1.8-14.8a14 14 0 0 0-8.8-6.4c-4.8-.8-5.4-1.4-3-3.4 5.4-4.4 16.6-5 25.6-1.4a129 129 0 0 1 48.4 43.2c3.2 5.8.4 7-4.8 2-6-5.6-21-12.4-28-12.4-6.6 0-15.4 8-15.4 13.8 0 2.2 1 6.4 2.4 9.2l2.2 5 76.2-.4 76.2-.6 1.8-5.6a16 16 0 0 0-7-19.2c-7-3.8-17.4-1.6-29.8 6.8-5.8 3.8-10 5.6-10 4.2 0-4.2 12.4-20.2 23.6-29.8 17.6-15.6 31.2-21 44.4-17.4 9.6 2.6 10.2 5 2 6.8-3.8.6-6.8 3-8.4 6.4-3.6 7.6 3.8 20.2 21.2 36l14 12.8h49.8l-8-7.4a36.2 36.2 0 0 1-12.2-29.6c.6-5.4 1.2-6 7.8-5.8 10.4.4 31.2 10.6 43.4 21.6 5.8 5 16.6 12 24 15.4l13.4 6 34-.6c33.6-.6 34.2-.6 47-7 7.2-3.6 18.4-11 24.6-16.4 15.2-13.4 18-14.6 30.6-14.4 7.8 0 14.8 2 25.8 7 8.2 3.8 15 7.6 15 8.6s-4.8 2.8-10.4 4.2c-10.2 2.4-25.6 11.6-27.2 16.2-.6 1.6 8.8 2.2 33.2 2.2 27.8 0 34.4-.6 36.4-3 3.2-3.8 14.8-3.8 18 0 1.8 2.2 7 3 20.2 3h17.8v-53c0-29.2-.8-53-1.6-53-1 0-3.8 2.4-6.6 5.2-4.4 4.6-4.8 6.8-4.8 23 0 9.8-.6 17.8-1.2 17.8-.8 0-3.6-3-6.2-6.6-16.8-21.8-25.6-57.8-19.6-79.6 1.2-4 7-12.8 13-19.6 5.8-6.6 14.4-18.4 18.8-26l8.2-13.8v-59.8l-9.2-15.4a106.3 106.3 0 0 0-22.4-26.6c-17-14.2-19.2-18.4-19.2-34.6a43 43 0 0 1 12.6-32.8c4.2-3.8 4.2-3.8 4.2 3 .2 9.6 3 21 7 27 3.2 5 3.4 5 7.4 1.4 2.4-2 7.6-8 11.8-13.2l7.8-9.8v-19.8c0-10.8-.6-19.8-1.6-19.8-.8 0-4.4.8-8.2 2l-6.6 1.8 1.4-9.4c1.6-10.8 4.8-17.8 10.8-23.2 4.2-3.8 4.2-5.2 4.2-76.6v-72.8l-6-7.6c-4.8-6-13-27.8-11.2-29.6.2-.4 3.2.2 6.4 1.2 10 2.8 10.8 1.6 10.8-19 0-21-1-23.8-14.8-38.2-6-6.6-8.6-8-10.6-6.4-3.6 3-8.6 20.8-8.6 30.4 0 7-.4 7.6-3.2 5.4-6.2-5.4-13-20-14.2-30.6-1.8-16.8 1.6-23.6 17.6-37a112.5 112.5 0 0 0 30.6-37.8c2.6-5 3.2-12.4 3.2-35.2v-28.8l-8-14.8a220 220 0 0 0-19-27.8c-6.2-7-12-16-13-20-6.2-22.4 3.4-59.4 20.6-79l7-8-1 16.2c-1.2 17.4 2.2 29 9.6 33 3.6 1.8 3.8 0 3.8-52.2V0h-16.8c-13.6 0-18.4.8-24 4.2L976 8.4l-8-4.2C960.8.4 956.4 0 928.8 0c-24 0-31 .6-30.4 2.4 1.6 4.8 19.8 15.4 28.6 16.8 5 .6 9 2 9 3 0 2.6-19.6 11-32.4 13.8-15.4 3.4-23.2 1-38.6-12-6.6-5.8-18-13.4-25.4-17.2L826 0h-34.4c-39.8 0-43.8 1.2-67.6 19.2-18.4 13.8-25.4 18-37.8 21.6-6 1.8-11.6 3.2-12.6 3.2-2.4 0-2-21.6.6-26.6 1.2-2.4 5.4-7.4 9.4-10.8L691 0h-51l-15.6 15.6C606 34 601.8 42 606.2 49.8c1.8 3.2 5 5.4 8.4 5.8 4.6.6 5.2 1.2 3.2 3.6-3.6 4.4-22.4 3.6-31.8-1.2-9.6-5-35.2-28.6-39.2-36.2-4.6-9-3.2-10.6 3.8-5.2A56.9 56.9 0 0 0 577.4 28c10.4 0 17.8-14.2 12.6-24.2-2-3.6-5-3.8-78-3.8s-76 .2-78 3.8c-1 2.2-2 5.8-2 8.2 0 5.8 10.6 16 16.4 16 4.8 0 21.4-7.6 29.2-13.2 6.6-5 5.4-1-4.2 11.4-9.4 12.6-24.4 26-35.8 32-9.2 4.8-28 5.2-31.6.8-2.2-2.6-1.6-3 3.6-3 4.6 0 6.4-1.2 8.2-5.6 4-9.6.8-16.4-17-34L384.2 0h-50.4l7.8 7.4c10.2 9.6 15.4 26.8 10.6 34.4-3.8 5.8-31-5.6-50.2-21.4-6-5-16.4-11.6-23-14.6C267.2.2 266.4 0 232.4 0h-34.6l-12.4 6.2c-6.8 3.4-18 11.2-25 17-15.8 13.4-24.6 16.4-38.8 13C110 33.6 88 24.2 88 22c0-.8 3.6-2 8.2-2.8a50.7 50.7 0 0 0 27.6-14l4.8-5.2h-23C84.2 0 82.4.2 81.4 4c-1 4.2-6.6 7.4-8.8 5.2-.6-.6.4-3 2.4-5.2 3.6-4 3.6-4-4.6-4-4.8 0-11.2 1.8-15.2 4.2L48 8.4l-7.2-4.2C35.2.8 30.4 0 16.8 0H0zM950.8 5c1.4 4-4.6 6.4-7 2.8-2.6-4.2-2.2-5.8 2-5.8 2 0 4.4 1.4 5 3zM225.2 28c3.6 10.6 4.4 15.2 2.8 18-4.6 8.4-1.2 18 6.4 18 5.8 0 8.4-7.4 5.6-16-2.2-6.6-2-9.4 1.8-21.8C244.2 18.4 247 12 248 12s6.8 10.2 12.8 22.4c11.6 24.6 22.2 40 34.4 50.4a190.3 190.3 0 0 0 42 26.4c4.8 1.8 8.8 4.6 8.8 6 0 1.6-3.6 5.4-8 8.6-7.2 5.2-9 5.6-14.6 3.8l-13.4-4a61.8 61.8 0 0 0-40 5c-5.6 3-10.6 5.4-11 5.4s-2.4-5.4-4.2-12.2c-1.8-6.6-7-17.6-11.4-24.4l-7.8-12.2-4 4.8a100 100 0 0 0-15.8 32.8c-1.2 5-3 9.2-3.8 9.2s-6.4-2.2-12.4-5a57.5 57.5 0 0 0-41.2-2.2c-6.8 2.4-8.6 2.4-12 0-4.6-3.2-9-14.8-7.4-19 .6-1.6 7.2-6 14.6-9.8 7.8-4 18.4-11.8 25.4-19a82.3 82.3 0 0 0 20.8-32c9-20.8 17.8-36.2 19.6-34.2.6.6 3.2 7.4 5.8 15.2zm558.6.8c3 9.4 3.6 14.6 2.2 16-2.8 2.8-2.6 13.8.4 16.8A7.2 7.2 0 0 0 798 60c1.6-3 1.6-6.2-.2-11.8-2-6.6-1.6-9.8 2-22.2 5-16.4 6.8-16.4 14.4-.4 19.4 41.6 22.2 46.4 33.4 56.6 6.2 5.6 16.8 13 23.6 16.4 13.4 6.6 15 9 12.4 18.6-2.6 10-6.4 12-16.8 9.2a63.4 63.4 0 0 0-42 2.8 64.8 64.8 0 0 1-13.4 4.4c-.2-.2-2.6-7.2-5.2-15-8-24.4-15.4-33-21.4-25.4-5 6.4-12.2 21.4-15 30.8-1.4 5-3 9.8-3.8 10.6s-6-1-11.8-4a56.5 56.5 0 0 0-46.6-2.6l-12.2 4.4-8.2-5.8c-11.2-8-11.2-10.8.2-15.4 16-6.6 44-26.6 53.6-38.6 5-6 13.2-19.6 18.4-30.2 11.2-23 16.6-31.2 18.6-29 1 .8 3.6 7.8 5.8 15.4zm214.6 6.6A441.5 441.5 0 0 1 946 93c-11 9-39.6 26.2-41 24.6-.4-.4 2-8.2 5.4-17.2a71.5 71.5 0 0 1 36.2-42.2c8-4.4 25.2-15.6 38.4-24.8s24.2-16.2 24.6-15.2-4.6 8.6-11.2 17.2zM22.2 21.8a748 748 0 0 0 53.2 35C96.4 69 106.2 80 114 100.4a101 101 0 0 1 5.6 16.6c-1.2 1.2-18.8-7.8-29.8-15-13-9-47.4-44.4-64-66.2-6.4-8.6-11.8-16-11.8-16.6 0-2.2 3.6-1.2 8.2 2.6zM527 37.2c3.6 6.6 3.6 6.6-3.6 20.2-3.8 7.4-7.6 16.6-8.4 20.2-1.6 7.8-3.6 6.6-7-4.6-1.4-4.4-5-12.8-8.2-18.4a74.9 74.9 0 0 1-5.8-12c0-1 4.2-7 9.2-13.4l9.4-11.8L518 24c3 3.6 7 9.6 9 13.2zM375.6 55.8a80.9 80.9 0 0 1 17 14c8.4 8.8 9.4 11 9.4 19 0 6.6-1.2 10.2-4.2 13-4.8 4.4-33.6 17-35.4 15.4-.6-.6 0-1.2 1.2-1.2 2.4 0 8.4-10 8.4-14 0-1-5-7.4-11-14-8.8-9.4-11-13.4-11-18.6 0-7.2 2.6-11.6 9-15 5.6-3.2 8.2-3 16.6 1.4zM482 58.4c-8.8 14.4-.4 45.6 12.2 45.6 1.8 0 4.4 1.4 6 3.2 1.4 1.6 4.8 4.2 7.8 5.8 4.8 2.4 5.8 2.2 12-2.6 3.8-2.8 9.6-6.6 12.8-8.4 11.8-5.8 17.2-28.4 10.2-42-7-13.4 9-1.6 19.2 14.2 11.6 18.2 17.2 50.8 12 69.4a80 80 0 0 1-13.2 19c-6.2 6.8-14.8 18.2-19 25.4s-9.4 14.8-11.8 16.8c-4 3.6-4.2 3.6-6.4-2-2.6-6.6-3-29.4-.8-42.4 1.2-6.8.8-9.4-2-12.4a11.6 11.6 0 0 0-18.4 1.2c-2.8 4.4-3 6.4-1 14a78 78 0 0 1 2.4 18c0 10-3.6 26.8-5.8 26.8-2.6 0-9.8-8.8-16.8-21a173.4 173.4 0 0 0-18.4-24.4c-12.6-14-15-20-15-37.6 0-24.2 8.2-45.2 24.6-62.4 11.4-12 15.2-13.8 9.4-4.2zM665.8 55c6.2 3.2 8.2 6.6 8.2 14.2 0 7-3.2 12.6-12.2 21-9.2 8.8-10.4 17.2-3.2 24 4 4 4.2 4.2.4 3.2a129.2 129.2 0 0 1-32.4-15.2c-3.6-3-4.6-6-4.6-13.2 0-8.2 1-10.2 9.2-19 7.8-8.4 22.4-18 27.4-18 .8 0 4.2 1.4 7.2 3zm-550 88c4.6 4.4 5 6.2 4.6 21.4a96.4 96.4 0 0 0 10.4 46c1.2 2.6.4 3.8-4.2 4.6-13.8 3.2-29 9.2-35.6 14.2l-7.2 5.4 5.6 5.8c6.6 7 23 15 34.4 16.8 4.4.8 8.2 2 8.2 2.8 0 .6-2.4 7-5.4 14.2-4.6 10.8-5.4 15.8-5.6 32.2 0 17.6-.6 19.8-4.8 24.4-5.2 5.6-15.6 7-19.8 2.8-1.4-1.4-2.4-5.4-2.4-9 0-17.2-18-46.8-35.2-58.4-5.4-3.4-17.4-8.8-26.8-11.6s-17.8-5.8-18.8-6.8c-1-.8 4.4-3.4 11.6-5.6 12.6-3.8 14-4 19.6-1C52 245 60 242.4 60 236s-9-9.6-15.8-5.8c-5 3-6.6 2.8-18.8-.8-7.4-2.2-13.4-4.6-13.4-5.6 0-.8 8.4-4.2 18.8-7.8 10.4-3.4 23-9 28.2-12.4A86.9 86.9 0 0 0 93.2 149c.8-5.6 2.4-10.6 3.6-11.6 3.6-2.6 14 .4 19 5.6zm269.8-4.6c1.4 1.4 2.4 5.6 2.4 9.4 0 8.6 7.6 25.4 16 36a86.6 86.6 0 0 0 40.6 26.4c22 8 31.4 12 31.4 14 0 1-3.8 2.8-8.4 4-8.2 2.4-15.8 2.6-35.6 1.4-8-.6-9-.2-9.6 4-1.4 9.6 8.8 13.6 18.6 7.2 3.6-2.4 6.2-2.6 12.4-1l16.4 4.2c10.8 2.8 9.6 3.8-12.8 11.2-23.8 8-38.4 16-49.8 27.4a122.3 122.3 0 0 0-26.2 44.8c-.8 4.2-2.6 6.6-4.6 6.8-7.4.6-11.6-.8-15.8-4.6-3.8-3.6-4.2-6-4-23.4a65 65 0 0 0-5.2-32.4c-3-7.2-5.4-13.6-5.4-14.2s3.8-1.6 8.2-2.2A91.2 91.2 0 0 0 391 240c3.4-3.8 3.4-4.2 0-8-4.8-5.2-21.2-12.8-34.6-16-8.6-2-10.4-3-9.2-5.8 9-21.4 9.6-23.8 9.8-42.6.2-16.2 1-20.2 4.2-23.8 6.6-7.4 19.6-10.2 24.4-5.4zm270.4.6c9.6 5 12 10.2 10.6 23.2a77.2 77.2 0 0 0 7.8 40.2c2.4 5.4 3.8 10 3.2 10.6s-6.2 2.4-12.6 4c-13.6 3.6-31 12.6-32.6 16.8-2.6 6.6 27 24.2 40.8 24.2 6 0 6 .4-.4 17.2a71.4 71.4 0 0 0-5.2 31.8c0 19.4-1.6 23.6-11.4 27.2-7 2.8-11.8.4-13.4-6.8-2.4-11.6-13.6-32-23.6-42.8-10.4-11.4-28.8-21.6-57.8-31.6-8.6-3-15.2-5.8-14.8-6.2.4-.6 7.4-2.8 15.6-5 14-3.8 15-3.8 22-.6 8.2 3.6 16.6 2.6 18.6-2.2 3-8.2-6.6-13.2-16.8-9-6.6 2.8-17.2 1.8-32-2.6l-9-2.6 7-3.8c3.8-2 14.2-6 23.4-9.2 35.2-11.8 58.6-36 62-63.8 1.4-12.2 7.2-15 18.6-9zm272.8-1.8c2.4.8 3.2 4 3.2 10.8 0 12.6 11.2 35 24 48a65 65 0 0 0 26.4 15.8c9.2 3.4 19.8 7.8 23.6 9.4 7.8 3.6 6.8 4.6-8.6 8.8-7.8 2-11 2-17.4 0-12.8-4.2-20.6 2.4-12.4 10.6 3.8 3.8 5 4 11 1.8 3.6-1.4 8.2-2.4 10.2-2.4 6 0 23.6 6.4 21.8 8-.8.8-9.6 4-19.2 7.2-10.6 3.2-22 8.6-28.4 13-16.6 12-33 40-33 56.4 0 3.6-1 7.6-2.4 9-4 4-13 2.8-19.4-2.6-6-5.2-6-5.2-4.8-21.6 1-16.2-.4-22.8-10.2-45.8-1.2-2.8.2-3.8 7.2-5.4 11-2.8 32.2-13.2 36.6-18.4 3.4-3.6 3.4-4 0-7.8-4.8-5.2-21.2-12.8-34.4-16a42.4 42.4 0 0 1-10.6-3c0-.2 2.4-5.8 5.4-12.2 4.8-10.2 5.6-14.6 6-32.8.2-20.8.4-21 6.4-26.4s12.6-6.8 19-4.4zm-737.4 12.6a76.1 76.1 0 0 1 26.4 23.8c1.8 3.4 1.2 3.8-4.2 4-10.2.2-12.6 8.8-5.6 19.4 5 7.6 5 8.6-.2 9.4-3.6.4-6.6 3.6-9 9.2-.2.4-3-2.2-6.4-5.6-3.4-3.2-7.6-6-9.4-6-6 0-11 4-11 9 0 7.4-4.4 6.2-13-3.2-8.2-9-14.8-22.2-15-29.4 0-3.4 1.2-4.4 5.6-4.4 11.8 0 24.4-13.2 24.4-26 0-5.2 6-5.2 17.4-.2zm109.6 3.6c.8 4.2 2.2 9.2 3.4 11.2 2.8 5.6 13.8 11.4 21.4 11.4 6.6 0 6.6 0 5.2 7.4a56.5 56.5 0 0 1-18.4 30.4L305 220l-1.4-5.4c-3.2-11.6-12.8-13.8-21-4.6-6.4 7.2-7.8 7.4-9.4 1-1-4-2.6-5-7.2-5-3.4 0-6-.4-6-1 0-.4 2.2-4.2 5-8.2 7.8-11.6 6-19.4-4.8-19.4h-6l3.4-5.8c6.6-11.4 27.2-25.4 37.6-25.6 3.4 0 4.6 1.6 5.8 7.4zm442.2-3.4c8.6 4.2 26.8 22 26.8 26.2 0 1.2-1.6 1.8-4 1.2-9-2.4-13.2 7.2-7.8 17.8 4.8 9.6 4.8 10.8-.2 10.8-2 0-5 2-6.2 4.4-1.2 2.6-2.6 5-3 5.4s-3.4-2-6.6-5.6c-8.8-9.4-17.2-7.8-21.2 3.8l-2 6-7.6-6.2a56.5 56.5 0 0 1-18.4-30.4c-1.4-7.4-1.4-7.4 5.2-7.4 13.2 0 25.8-12.2 25.8-25 0-4 1-5 5.4-5 3 0 9.2 1.8 13.8 4zm108.8 2c0 13 11.4 24 24.8 24 4.8 0 5.2.6 4 5.4a72.8 72.8 0 0 1-15.6 29.2c-8 8.8-13.2 9.6-13.2 2.4 0-3.6-1.4-5.6-5.2-7-6.6-2.6-5.6-3-13.8 4.2-4 3.6-7.4 6-7.6 5.6l-2.6-4.8a10.4 10.4 0 0 0-6.6-4.6c-5.2-.8-5.2-2-.2-8.4 5.4-6.8 5.2-17.2-.2-20-2.2-1.4-5.4-1.8-7-1.2-6.2 2.4-2.2-4.4 9.4-15.2 11.4-11 19.2-15 29.4-15.4 3.6-.2 4.4.8 4.4 5.8zm-615.6 34.4c-1.8 1.8-2.4-.2-2.2-8.6l.2-10.8 2.2 8.6c1.4 6.2 1.4 9.2-.2 10.8zM790 180c0 4.4-.8 8-2 8-2.2 0-2.6-7.8-.8-12.8 2-5.2 2.8-3.8 2.8 4.8zm-540.2 41.6c10.4 9.8 12 16.2 6 24.8a56.5 56.5 0 0 1-8.6 10c-9.2 7.6-23.6 2-30.2-11.6-4.2-8.8-1.8-15.8 8.4-24.8 9-8 14.8-7.6 24.4 1.6zm546.4-4.2a44 44 0 0 1 11 11c4.8 6.8 5 8.2 2.8 13.6-3.6 8.6-15 18-22 18s-16.6-7.6-20-16c-3.2-7.8-.2-15.6 9.4-24 7.8-7 10.8-7.4 18.8-2.6zM518 234.8c0 5-5 7.4-9 4.6-2.8-2.2-3.2-3.4-1.2-7s3-4 6.2-2.4c2.2 1.2 4 3.4 4 4.8zM188 236c0 1.2-4.6 1.8-10.4 1.8-9-.2-9.8-.4-4.6-1.8 8.8-2.2 15-2.2 15 0zm113.8-.2c1.8 1.2.2 2-5 2.6-8.8 1.2-9.8.8-7.8-2.2 1.4-2.6 9-2.8 12.8-.4zm435.2.2c.8 1.2-2.8 2-9.4 1.8-9-.2-9.8-.6-4.6-1.8 8.8-2.2 12.6-2.2 14 0zm116.8.8c-2.4 2-15.8 3.2-15.8 1.2 0-1 3.8-2 8.4-2s7.8.4 7.4.8zm-681.8 23c0 9.2 13.4 11.2 20.8 3.2 5.6-6 6.4-6.2 7.8-1 .6 2.2 2.4 4.4 4.2 5l6.4 2c2.6.8 2.4 2-2 7.2-9 10.6-5.4 22.4 6.2 20.2l5.4-1-3.6 5.8c-9.4 14.6-25.8 26.8-36.4 26.8-6.6 0-8.8-2.6-8.8-10.2 0-2.2-3-7.2-6.6-11.2-5.4-5.8-8.4-7.4-14-7.4-6.6-.2-7.4-.8-7.4-5.2.2-8 7.6-22.4 16.4-31.4 8.4-8.4 11.6-9.2 11.6-2.8zm144.8 4.4c7 8.2 12.6 19.2 14.2 28 1.2 6.8 1.2 6.8-6.6 7a31 31 0 0 0-12.8 3.6A37 37 0 0 0 300 325c0 4.4-10.6 3.8-19.8-1-7.2-3.6-26.2-22.6-26.2-26 0-1 2.8-1.6 6.2-1.6 10.2.4 13.2-9.6 5.8-19-5.4-6.8-5-8.6 1.8-10 3.6-.8 6-2.8 6.8-5.8l1.2-4.4 5.8 5.6c8 7.6 16.4 6.6 20.2-2.2 3.2-7.4 6.4-6.6 15 3.6zm405.2-5.4c0 7.2 6.8 11.4 14.2 8.8a18 18 0 0 0 8-5.8c2.6-5.2 5.2-4.8 6.6 1.2 1 4 2.6 5 7.2 5 3.4 0 6 .4 6 1.2 0 .6-2.2 4.4-5 8.4-6 8.8-6.2 11.2-1 16.4 3 3 5.4 3.8 9.4 2.8l5.4-1.4-4.8 6.6c-12 16.8-25.4 26-38 26-4.8 0-6-.8-6-4.2 0-12.4-11.4-23.8-24.8-24.4-5.8-.4-6.2-.8-5.6-7.4 1-9.4 9.6-24.8 17.8-32.2 8.2-7 10.6-7.4 10.6-1zm146.6 8.6c9.2 12.8 10.8 16.4 11.6 24.6.8 6.4.4 6.8-5.4 7.2a33 33 0 0 0-10.6 2.6 29.3 29.3 0 0 0-12.2 20.6c0 4.8-.8 5.6-6 5.6-9.4 0-24.4-8.6-32.6-18.6-7.8-9.4-9.4-14-4.6-12.2 1.6.6 4.8.2 7-1.2 5.6-2.8 5.6-13.8.2-19.6s-5-7.6 2-9.2c3.6-.6 6-2.4 6-4.2 0-4.2 4.8-3.8 9 1 2.2 2.4 6.2 4 10.2 4 5.6 0 6.8-1 9-6.8 3.2-8.6 6.4-7.4 16.4 6.2zM501 269.2c2.6 7 3.2 12 2 21.6-1 10.4-.6 13.2 2 16 4.4 4.2 9.6 4 13.8-.6 3.8-4.2 4.2-7.2 2-19.8-1.4-8.4 3.4-26.4 7.2-26.4 1.4 0 6 6.6 21.6 30.4 2.6 4.2 9.6 11.2 15.6 15.6s12.2 11 14 14.4c6.4 12.4 1 37.4-11.4 53.4-2.2 2.6-3.8 4.4-3.8 4-.2-.4-.4-6.2-.6-13-.6-12-5.8-24.6-10.8-26.2-3-1-20.6 22.6-20.6 27.6 0 7.2-3.2 3.8-6.6-6.8-3.8-11.6-10.4-23.4-13.2-23.4s-7.8 8.6-12.8 22.4l-4.8 12.6-4.2-9c-2.2-5-7.2-12.6-11.2-17l-7.2-8-4 4.6c-4.8 5.6-8 16.6-8 27.4l-.2 8-4.8-6c-6.6-8-13-25.2-13-35.2 0-12.2 5-20.8 19.2-31.8a79.3 79.3 0 0 0 18-19.4c9-16.2 14.8-24.6 16.6-24.6.8 0 3.2 4.2 5.2 9.2zm-263.2 22.2c0 3.2-.8 7.4-1.8 9.6-1.2 3-1.8 1.6-1.8-5.6-.2-5.2.8-9.4 1.8-9.4 1.2 0 2 2.4 1.8 5.4zm551.6 8c-.4 3.2-.8 1-.8-4.4 0-5.6.4-8 .8-5.6.4 2.6.4 7 0 10zm-516.2 46.8c11.4 5.6 14 6.2 26.2 5.2 7.4-.6 15.6-1.6 18-2.4 3.6-1.2 5.2-.2 8.4 5.2 6.8 11 4.4 14.4-17 26.8-22.6 12.8-36.6 32.2-50 69-4.6 13-14.8 31.8-14.8 27.4 0-.8-1.8-8.8-4.2-17.6-4-15.6-4-16.6-.8-23.8 5.6-12.4-1.4-23.4-10.6-16.8-5.2 3.6-5.6 8.8-1.4 16.8 2.8 5.2 2.6 7.2-2 22.8-2.8 9.6-5 18-5 18.8-.4 5.4-9.4-12-19.4-37-10.2-26.2-12.8-30.8-23-41.8-6.6-7-16.6-15-23.6-18.6-14.2-7.6-17.8-13.2-14-22 1.2-3.2 4-7.4 6-9.2 3.4-3 4.2-3 9.8-.2 9.6 5.2 31 4.2 43.8-1.8 6-2.8 11.4-5 12.2-5s3 5.6 5 12.4c3.6 13 10.8 27 16 31.4 2.6 2.2 4 1 9.8-8.2a129 129 0 0 0 11.4-24.2c2.4-7.4 5-13.4 5.6-13.4.4 0 6.6 2.8 13.6 6.2zm497.4 7.4c3.2 12.4 15.4 34.4 19 34.4 3.2 0 12.6-17.4 16.8-31 2.4-7.6 4.6-14.4 5-14.8.2-.4 6.2 1.8 13.2 4.8 11 4.6 14.8 5.2 26.6 4.4 7.6-.6 16.6-1.6 20.2-2.4 5.8-1.2 6.8-.8 10.4 5.2 7.8 12.6 5.8 16.6-13.6 27-21.8 11.6-32.4 26-45.4 62.2-7.8 21.4-11.4 28.8-15.4 32.2-2.2 2-3.4-.6-7.2-15.8-3.6-15.2-4-19.4-2-24.8 1.4-3.4 1.8-8.8 1-11.6-1-4.4-2.4-5.4-7.2-5.4-7.4 0-9.6 6.8-6 18.2 2.2 6.8 2.2 10-1 24-2 8.8-4.4 16.4-5.2 17-1.8 1-10-14.4-13.8-26.2-10-31-28.4-57.4-48-68.6-22.8-13-26.6-19-17.4-29.4 4-4.6 5-4.8 11.4-3a55.7 55.7 0 0 0 40.2-3.8c6-3 11.8-5.8 12.8-6 1.2 0 3.6 6 5.6 13.4zm-92.6 6c-8.2 19.2-8 27.2 1 37.4 9.6 11.2 9.6 19.2-.4 28.2-10.4 9.6-13.4 10-25.4 4-24.8-12.6-39.8-9-61 14.6-15.6 17.4-31.8 29.4-41.8 31.4-6.4 1.4-6.6 1.2-5.2-4.4 3.2-14.4 17.8-31.4 37-43.6 19.6-12.2 26.4-33.2 18.4-55.8l-3.6-9.8 6.6-5.8c8.6-7.6 16.2-7.6 25 .2 9.8 8.6 16.2 7.8 36.8-4 9.6-5.6 17.8-9.4 18.2-8.4a74 74 0 0 1-5.6 16zM360.8 353c9.2 5 19.2 9 22.4 9s9.2-2.8 13.6-6c10-7.6 15.4-7.6 23.6-.2l6.4 5.8-3.4 10.8c-4.8 15.2-4.2 23.2 2.2 35.8 4.2 8.6 8.4 12.8 20.2 21a134 134 0 0 1 20.2 17.2c6.8 8.4 14 22.2 14 27.4 0 3.4-.8 3.6-5.8 2.2-9.8-2.8-24.2-13.8-42.2-32.2-13.6-14-18.8-17.8-26-19.8a46.3 46.3 0 0 0-35.4 5.2c-9.6 5.6-14.4 5-23.8-2.8-11-9.2-11.2-17-.6-29.6 7.2-8.8 8-10.6 6.8-17.8a97.3 97.3 0 0 0-7-20.8c-3.4-7-6-13-6-13.4 0-2.2 6 0 20.8 8.2zM117 372.4c-11.2 31-18.6 40.6-41.4 54.6A347.8 347.8 0 0 0 24 468.8c-25.4 26.4-7.6-8.2 25-47.8 21-25.4 38.6-42 57.2-53.4 8.2-5 15-9 15.2-8.8s-1.8 6.2-4.4 13.6zm816.4 5c22.8 16 81.2 89.8 78.2 98.8-.4 1.2-9.2-5.6-19.6-15.2s-27.6-23-38.2-30c-27.4-18.2-35.8-28.4-45.4-55.2l-5.4-14.6c-1.4-3.2-.2-3 8.2 1.8 5.4 3.2 15.4 9.6 22.2 14.4zM528.8 401c3.4 2.2 7.8 3.2 12.4 2.6l7.2-.8-1.2 9.6c-1.8 13.6-2.2 14.2-15 25.2a72.2 72.2 0 0 0-15.2 18.2c-4.2 9.6-6 10.2-7.8 3-.8-3-7.6-11.6-15.2-19.2a69.3 69.3 0 0 1-14.8-18.2c-3.6-18.2-4-17.4 5.4-17.4 10.8 0 16-4.6 23-19.6l5-11 5.4 12.2c3.2 6.6 8 13.6 10.8 15.4zM31.4 389.2c1.4 3.6-3.4 7.6-6.2 4.8-2.2-2.2-.2-8 2.8-8 1.2 0 2.6 1.4 3.4 3.2zm439.2 1.6a4.5 4.5 0 0 1-5.8 5.8c-1.6-.6-2.8-2.8-2.8-4.8 0-4.4 7-5.2 8.6-1zm91.4 1.4c0 5-6.6 4.4-7.6-.8-.4-2.4.6-3.4 3.4-3.4 3 0 4.2 1.2 4.2 4.2zm438-.2c0 2.2-1.2 4-2.8 4-3.6 0-5.8-3.2-4.2-6 2.2-3.6 7-2.2 7 2zm-859.8 60a74.3 74.3 0 0 1 19 12.6 177 177 0 0 0 26 19c20.4 11.8 21 13 8 17a44.2 44.2 0 0 1-31.6.6c-8.8-2.8-9.8-2.6-14.4 1-6.2 5-6.8 12.2-1.2 17.8 4.6 4.6 9.2 5 17.4 1.8 3-1.2 9-2.2 13.2-2.2 9.4.2 27.8 6 26.4 8.6-.8 1-9 6.4-18.6 12s-22.2 14.6-28 20c-15 13.8-27.8 15.2-51.2 5.4-13.6-5.6-13.8-5.8-10.2-13.2 2.8-5.4 2.8-7 .2-13.4a26.3 26.3 0 0 0-9.2-10.6c-3.2-1.8-6-4-6-5 0-.8 5.2-1.4 11.6-1.4 9 0 12.6-1 16-4 5.2-4.8 5.4-6 1.6-11.2-2.2-3-6-4-17.6-4.8L77 501l7.2-4.4c3.8-2.4 8.4-6.8 9.8-9.6 3.2-5.8 3-14.8 0-17.8-5.2-5.2-.8-8.6 20-15.4 13-4.2 16.6-4.4 26.2-1.8zm208.8 3.2c7.8 2.8 17 6 20.6 7 3.4 1.2 6.4 2.6 6.4 3.4s-6.2 4.8-13.6 8.8A104 104 0 0 0 344 487l-5 5.4 7 5.8a55.4 55.4 0 0 0 17.8 9.2c13.6 3.8 24 1.2 33.6-8.4 5.4-5.4 6.6-8.2 6.6-14.8 0-9.2.4-9.2 15.6-6.4 7 1.4 10.6 3.8 18.8 13a83.7 83.7 0 0 0 20.4 16.6c10 5.2 10.2 5.2 4.8 6.8A51 51 0 0 0 439 531a32.6 32.6 0 0 1-24.8 14.8l-10.2 1.6v-8.6c0-6.8-1.2-9.6-6-14.4-12.2-12.2-28.6-13-47.6-2.4a40.5 40.5 0 0 0-10.4 7.6c0 3.2 13.2 14 24.6 20.4 6.2 3.4 11.4 7 11.4 7.8 0 2.4-38.8 14.2-46.4 14.2-10.8 0-16.2-2.6-29.4-14.8-6.4-6-13.8-12-16.4-13.2-8.6-4.6-23.8-14.6-23.8-16 0-2 18.6-8 25.2-8 3.4 0 9.2 1 12.6 2.2 12.8 4.6 22.6-6.4 15.4-17.2-3.6-5.6-7.2-6-19.8-2.6-7.2 1.8-10.4 1.6-20.4-1.8-6.4-2-12-4.8-12.4-5.8s6.6-6.2 15.2-11.4c8.8-5.2 21-14 27-19.6 16.6-15.2 24.4-16.6 46.2-8.6zm356.2-3.2c2.8 1.2 11 7 17.8 13 6.8 6.2 18.6 14.4 26.2 18.6 7.4 4 13.8 8.4 14.2 9.8.6 1.2-2.2 4-5.8 5.8-6.8 3.6-20 4.2-35 1.8-7.4-1.2-8.6-.8-11.6 3.8-7.4 11.2 2.6 22.4 15.8 17.6 3.6-1.4 9.2-2.4 12.4-2.4 7 0 23 4.6 23 6.6-.2.8-.2 2.2-.2 3 0 1-6 5.2-13.4 9.6a162.7 162.7 0 0 0-25.2 18.4c-18.4 16.8-25.4 17.8-54 8.2-10.2-3.4-19.6-6.6-21.2-7-1.8-.6 1.2-3.2 7.4-6.4 15.2-8 28.4-18 28.4-21.2 0-6-23-17.2-35.2-17.2-5.8 0-16 4.8-22.2 10.6-3.6 3.2-4.6 6.2-4.6 13.6v9.6l-7.4-1c-14.8-2-16.6-3-29.2-15.6a77.4 77.4 0 0 0-20-15.4c-8.6-3-9.4-4.8-2.4-6.6 2.8-.8 11.8-7.6 20-15.4 14.6-13.8 21.8-17.6 34.6-17.8 4 0 4.4 1 4.4 10 0 9.4.4 10.4 8.2 16a50.8 50.8 0 0 0 15 7.2c8 1.4 22.8-3.2 33.6-10.4l7.6-5.2-5.8-6a95 95 0 0 0-19-13.2c-7.6-4-13.6-8-13.6-8.8s3-2.2 6.6-3.4c3.4-1 12.8-4.2 20.4-7 15.2-5.6 22-6.2 30.2-3.2zm201.4 1c6.4 1.6 15.2 4.8 19.4 7 8 4 8 4.2 5 10-4.8 9.4-3.8 14 6 23.4l9 8.6h-11.6c-13.4 0-21 4-20 10.6.8 6 8.6 9.4 21.2 9.4H946l-9 8.6c-9.8 9.4-11.6 16.8-6 24.6 2.8 4 2.4 4.4-10.2 9.8-25 10.6-36.8 9.2-56-7.2-6.4-5.4-18.8-14-27.2-18.8-8.4-5-15.8-9.8-16.4-10.8-.8-1 3.4-3.4 8.8-5.2 9.8-3.2 19.6-3.2 38 0 9.4 1.6 14.6-2.4 14.6-11 0-9-5.2-12.6-15.6-11l-14.8 2.4c-7.8 1.2-30.6-5-29.6-8.2a76 76 0 0 1 16.4-11.4c8.6-5.2 20.6-13.6 26.6-18.8 9.4-8.4 21-14.6 27.4-15 1.2 0 7.4 1.4 13.6 3zm-509.8 10.8c2 3.2-1 8.2-5 8.2-4.2 0-5-4-1.4-7.6 2.8-2.8 5-3 6.4-.6zm238.8 3.8c.4 2.8-.4 4.4-2.4 4.4-3.4 0-7.8-6.8-5.8-8.8 2.8-2.6 7.6 0 8.2 4.4zm-557.8-2.8c-.4.4-5.8 2.8-11.8 5.2s-13 6.2-15.4 8.4c-3.6 3.4-4.6 3.6-4.6 1.2 0-3.8 3.2-6.6 13.2-11.6 6.6-3.2 21.2-5.8 18.6-3.2zm889.8 4.2a41.9 41.9 0 0 1 10.4 5.8c0 .4.6 2.4 1.2 4.2 1 2.4-.6 2-6-1.8a73 73 0 0 0-14.8-7.4c-9.6-3-12.6-5.8-6.2-5.8 2.6 0 9.6 2.2 15.4 5zM522 493c13 6.8 15.4 22 5.2 32.2-5.4 5.4-8.4 6.8-14.8 6.8-15.6 0-25.8-15.2-19.2-29 5.6-11.8 17.4-16 28.8-10zm-469.8 6.2c6 4 13.2 8.2 16.4 9.2 6.6 2.4 7 4.8.6 6.4-2.6.6-9.4 4.4-15.2 8.2s-11.4 7-12.8 7c-3.4 0-27.2-15.6-27.2-17.8 0-2.6 17.2-15.2 27.2-20 .2-.2 5.2 3 11 7zm937.6-3.2c8.8 4.4 20.2 13.6 20.2 16.2 0 1-6 5.8-13.2 10.6l-13.2 8.8-7.6-5.4c-4-2.8-11.2-7-15.6-9-4.6-2.2-8.4-4.4-8.4-5.2s4.4-3.4 10-6a58 58 0 0 0 14.2-9.4c5.4-5.6 4.2-5.4 13.6-.6zm-752.2 15.2c.8 5.4-4.6 7.6-8.6 3.6-2.4-2.6-2.6-3.8-.8-6 3.4-4 8.6-2.6 9.4 2.4zm560 0c.6 4.6-3.6 7.4-8.6 5.6-3.2-1.2-4-7-1.6-9.6 2.8-2.8 9.6-.2 10.2 4zm-723 48.4c-6.4 1-28.6-11-28.6-15.4 0-.8 7.4 2.2 16.6 6.8 11.8 5.8 15.2 8.2 12 8.6zM975 548c-6 6.4-21 13-25.4 11.4-1.4-.4 3.4-3.6 10.6-7 7.4-3.2 14-7 14.6-8.2.8-1.2 2.4-2.2 3.6-2.2 1.4 0-.2 2.6-3.4 6zm-750.4 16c4.4 16.8 4.6 19.6 2.2 24.4-3.6 7-3.6 10.6.4 14.4 4.8 5 10 3.8 12.8-2.6 2-4.8 1.8-6.8-1-12.2-3-5.6-3-8.2-1.2-18.2 1.4-6.4 3.6-15.2 5-19.2l2.6-7.6 5.4 10.6c3 5.8 7.6 17 10.6 25 11.6 32.4 25.4 50 51 64.8 8.4 5 16 10.8 16.6 12.8.8 2.2-.4 6.8-2.4 10.4-4.2 7-3.8 6.8-25.6 4.4a37.7 37.7 0 0 0-25 4c-20.4 8.4-19.4 8.4-21-.6a116 116 0 0 0-15.8-35.2c-1.8-2.2-4.4-3.2-6.2-2.4-4 1.4-16.6 27.8-18.2 37.6-.8 4.2-1.6 7.6-2.2 7.6-.4 0-5.4-2.4-11.2-5.4-10.6-5.6-17.8-6.2-48.4-4.2-7.4.6-8.2.2-11.6-7-5.6-11.2-3.6-15.4 11.6-23.2 24.8-12.8 38.2-30 49-63.2 6-18.4 15-36.6 17.2-34.4.4.2 2.8 9 5.4 19.4zm251.8-3.6a87 87 0 0 1-31.2 34c-14.8 10.2-18.2 14-22.2 25.4s-3.8 18.4.6 30.6l3.4 10-6.6 5.8c-8.4 7.6-13.2 7.4-25.2-1.2-11.8-8.4-13.8-8.2-36.8 5.6-9.2 5.4-17 9.4-17.4 9s2.2-8.4 6-17.6c3.8-9.4 7-18.8 7-21s-3.6-8.8-8-14.8c-10.4-13.8-10.4-19.6 0-29 9.4-8.6 13.6-8.8 26.8-2.2 12 6 29.8 6.8 39.8 1.8 3.6-1.8 15-12 25.4-22.6 21.4-21.8 40.4-33.8 41.6-26.4.4 2.2-1 8-3.2 12.6zm90.6-4.2a140.6 140.6 0 0 1 28.8 27.4c9 11.6 19 16.4 33.8 16.4 8.6 0 14.4-1.4 21.6-5 5.4-2.8 11.6-5 13.6-5 6.2 0 18.8 9.8 21 16.6 2.4 6.6.4 11.2-9.4 22-7 7.4-6.4 17.8 1.6 34.8 3.2 7.2 6 13.8 6 14.8 0 2-15.8-5.6-28-13.2-12.6-7.8-16.6-7.8-26 0-9.6 8-14.4 8.6-23.6 3-8.6-5.4-9.4-8.2-5.4-19a45.9 45.9 0 0 0-2.4-36.2 48.5 48.5 0 0 0-16.8-16.4c-7-4.6-15.2-11-18.2-14-7.6-7.6-19.6-28.2-19.6-33.6 0-4.2.4-4.4 6.6-2.4 3.4 1.2 11 5.6 16.4 9.8zm217 3c4.4 15.4 5 25 1.8 28.2s-1.4 14.8 2.8 17.4c6.2 4 10.4-1 9.8-11-1-17.4-.4-25 3.2-37.8l3.8-12.8 3.6 5.4c1.8 3 7.8 16.6 13 30.2s11.8 28.8 14.8 34c6.4 11 19 22 34.4 30.2 13.8 7.2 15.8 11.4 10.6 23l-3.8 8.6-8.6-1.8a117 117 0 0 0-22.4-1.6 44.6 44.6 0 0 0-24.4 5.4c-5.8 3-10.8 5.4-11.2 5.4s-1.8-4.8-3.2-10.6c-2.6-11.4-13.8-33.8-17.6-35-4-1.2-14.6 15.6-19.2 31-2.4 8-5.2 14.6-6.2 14.6s-6.4-2.2-12.2-5a61.2 61.2 0 0 0-40.4-5.2c-8.8 2.4-9.8 2.2-13-1.8-4.6-5.6-4.6-14.6 0-18.4 1.8-1.6 9-6.4 16-10.6 23.4-14 35.2-29.8 49.2-66.6 7.8-20.4 13-31.2 14.4-29.8.6.4 2.6 7 4.8 14.6zm-754.6-.6c18 16.8 31.2 27.2 44.6 35.4 22.6 13.8 31.4 25.2 41.8 53.6l6 16.6-11.4-6.4c-23.2-13-40.2-29.2-69-65.4-14.6-18.2-29.4-40.8-29.4-45 0-3.6 5-.4 17.4 11.2zM1012 547c0 .6-2 5-4.2 9.6-8.4 16.4-35.6 51.4-56.8 72.6-14 14-45.4 36.4-46.6 33.2-.2-1 2.2-9.6 5.8-19.2 8.6-23.6 17.6-34.6 41.8-50.2 10.8-7 28-20.4 38.2-29.8C1007 547.6 1012 544 1012 547zm-376.4 8.8c-1 4.8-7.6 5.4-7.6.6 0-2 .6-4.2 1.2-5 2.2-2.2 7 1 6.4 4.4zm-239.6-3c0 .4.6 2.2 1.2 4 1 2.4 0 3.2-4 3.2-4.8 0-7-3.6-3.8-6.6 1.4-1.6 6.6-2 6.6-.6zM534 587c10 8 11.4 10.4 13 23.2l1.4 11-8.4-.8c-10.2-1-14.2 2.2-22 17.6l-5.6 10.8-6-12c-7-13.6-13-17.8-23.2-16.2l-7.2 1.2 1.2-8.4c1.8-13.6 4.6-18.6 15-27.4 5.4-4.4 12-12.2 15-17l5.2-9 7 10.6c3.8 5.6 10.4 13 14.6 16.4zm-63.4 41.8c1.6 4-4 8.6-7 5.6-2.8-2.8-.6-8.4 3.2-8.4 1.4 0 3.2 1.2 3.8 2.8zm92 0c1.6 3.8-4 8.6-6.8 5.8-2.4-2.4-.2-8.6 3.2-8.6 1.4 0 3 1.2 3.6 2.8zM999 634c-2.4 2.2-3.4 2.4-5.4.2-2.2-2-1.8-3 1.2-5.4 5-3.6 8.6.8 4.2 5.2zm-967.8-3.8c.6 1.2.2 3.2-.8 4.2-2.6 2.6-9-1.6-7.2-4.6 1.4-2.4 6.2-2.2 8 .4zM578 667.6a45.5 45.5 0 0 1 1.8 31.8c-1 3-9 12.4-17.6 20.6-8.8 8.4-18 19.4-20.8 25-3 5.4-7 12.2-9.2 15l-4 5-4.2-9.6a33 33 0 0 1-2.8-21.4c1-10 .8-12.8-2.2-16-4.4-4.8-9.6-5.2-14-.6-2.8 2.6-3.2 5.6-2 16 1 9.6.6 14.8-2.2 21.6-1.8 5-3.8 9-4.2 9-2 0-8.8-9.4-15.6-21.4-4.4-7.6-12.4-17-20.8-24.6-20.8-18.6-23.4-31.2-11-55.8a54 54 0 0 1 8.6-14.2c1 0 2.2 4.8 2.8 10.8.6 5.8 3 14.6 5.4 19.2l4.4 8.6 6.8-6.8a97.3 97.3 0 0 0 12.6-17.6l5.8-10.8 2.2 8.8C501 673.2 508 686 512 686c3.8 0 10.6-11.4 13.8-23.6 1.4-4.6 3-8.4 3.8-8.4s3 4 5 8.6c2 4.8 7 12.2 11.4 16.4l8 7.8 4.2-9.6a84 84 0 0 0 5.2-20.6l1.2-11 4.6 5.8c2.6 3 6.6 10.4 8.8 16.2zm-460.6 24.8c4.2 3.8 4.4 5.4 3.2 18.4a83.4 83.4 0 0 0 9.6 45.4l3.8 7.4-10.4 2.2c-13.4 3-25 8.2-33.2 15.2l-6.6 5.6 4.6 4.8c6 6.4 15.6 11.4 30.6 15.6 6.6 2 12.2 3.6 12.4 3.8a28 28 0 0 1-3.4 8.8 82.5 82.5 0 0 0-7.4 42.2c1 12.4.8 13.2-4.8 18.4-7 6.6-12.2 8-18.2 5-3.8-1.8-4.8-4.4-5.8-13.4-2.2-21-20.4-47-39.6-56.6-5-2.6-15.4-6.6-23.2-9.2-7.6-2.4-14.8-5.2-15.8-6-1-1 4.4-3.6 11.6-5.8 12.6-3.8 14-4 19.6-1 7.4 3.8 15.6 1.2 15.6-5 0-6.4-7.2-9.2-16.2-6.2-6.8 2.2-9.4 2.2-19.8-1-6.6-2-12-4.4-12-5.2s5.2-3 11.6-4.6C62.8 760.4 89.4 734 93.8 701c.8-6.2 2.8-12.2 4.4-13.2 4-2.8 13.8-.4 19.2 4.6zm807.8-5.2c3.6 1 4.4 3 5.4 13a90.8 90.8 0 0 0 23 46.4c7.8 8.2 28 18.8 47 24.6 6.2 2 11.4 4 11.4 4.8 0 .6-5.8 3-12.8 5.4-10.8 3.4-13.2 3.6-17.4 1.4-7-3.8-13.4-3.4-15.8 1-4.6 8.8 5.8 15.4 14.8 9.4 4.6-3 6-2.8 18.4 1 7.2 2.2 12.6 4.8 11.6 5.8-1 .8-8 3.6-15.8 6-21.4 7-31.6 12.8-42 24.4a82 82 0 0 0-20.8 42.6c-1 7.6-2.2 10.4-5.8 12.2-5.8 2.8-9.6 2-17-4-5.6-4.6-5.8-5.2-6-25.4-.4-17.4-1.2-22.8-5.6-33.2l-5.2-12.4 9.8-2c16.8-3.6 37.6-14.8 37.6-20.2 0-6.2-19.2-16.8-39.4-22-4.8-1.2-8.6-2.4-8.6-2.8s2.4-6 5.4-12.4c4.6-10 5.4-14.8 5.8-32.8l.6-22.6c.2-1.8 12.4-9.4 15.2-9.4 1.2 0 4 .6 6.2 1.2zM380.8 695a113.8 113.8 0 0 0 24.8 43.6c11.8 12 23.8 18.8 50 28.4 11.2 4.2 20.4 8.4 20.4 9.2s-3.4 2.6-7.4 3.8c-15 4.2-22.4 4.6-30 1.6-9.6-3.6-14.2-2.6-15.8 3.6-2.4 9.6 6 13.6 17 8 4.8-2.6 7.4-2.6 20.4 0 8.2 1.8 15.2 3.6 15.6 4 2 2-3.8 4.8-22.2 11.6-25.2 9-35.2 15-47.4 28.4-10.2 11-18.2 28.2-18.2 38.4 0 7.4-3.4 10.4-11.8 10.4-5.2 0-9-1.6-13.6-6-6.2-5.8-6.4-6.4-5.2-18.6a82.1 82.1 0 0 0-7.4-41.8l-4-8.8c0-.2 4.8-1.6 10.6-2.8 13.4-3.2 25.8-9 32.6-15.2l5.2-5-4.6-5.2c-5.6-5.8-20.8-13.2-34.4-16.8-5.2-1.2-9.4-2.8-9.4-3.4s2.2-6.6 4.8-13.2a74 74 0 0 0 5.6-40.8c-1.8-7.8-1.6-9.2 3-14.4 3.8-4.8 6.6-6 12.6-6 7 0 7.6.4 8.8 7zm283.6-1.2c4.2 4.8 4.6 7 3.6 15.4-1.6 13.8 1 30 6.8 43l5 11.2-12.4 3.4c-14.2 3.8-31 12.6-34.2 17.6-4.2 6.8 13 18.6 34.4 23.6 8.6 2 10.4 3 9.2 5.8-8.8 21-9.6 23.8-9.8 43-.4 19.4-.4 20-6.2 24.6-6.4 5-18.4 6.2-22.4 2.2-1.4-1.4-2.4-5.8-2.4-10 0-15.6-18.4-41.6-37.2-52.6-4.8-2.8-17.2-8.2-27.6-11.8-27.8-10-27.8-10.2-14.6-14 19.2-5.6 22.8-5.8 27.6-2.4 6.4 4.4 15.2 4.2 17.8-.6 2.6-5 2.6-5.4-1.2-9-3.8-4-12.6-4.2-18-.4-3.8 2.6-6 2.6-19.4-1.2A53 53 0 0 1 548 776c0-.6 6-3.4 13.6-6 27.8-9.4 45.6-19.6 57.8-32.8 12.2-13 21.2-29 23.6-41.8 1.4-7 1.8-7.4 9-7.4 6 0 8.8 1.2 12.4 5.8zm-472.8 4.4c10 5 20.8 15 25.2 23.6 3 5.4 2.8 5.6-2 4.6-10.4-2-13.8 7.6-6.8 19.2 2.2 3.6 4 6.8 4 7.2s-2.6 1.8-6 3c-3.2 1-6 3.4-6 5 0 4.4-1.4 4-8.4-1.8-9.6-8-19.6-5.8-19.6 4.4 0 6.6-3.6 5.6-12-3.2-8.6-9.2-16-23.2-16-30.8 0-4.8.8-5.4 6.8-5.4 9.8 0 20.6-10.4 22.4-21.6 1.6-10 4.8-10.6 18.4-4.2zm109.2 3.8a24.1 24.1 0 0 0 22 21.4l9.6 1.2-1.4 7a54.2 54.2 0 0 1-16.8 29.2c-4.4 4.4-8.4 7.6-8.6 7-.4-.4-2-3.6-3.6-6.8-4.2-8.2-13.2-9.2-20-2-5.6 6-7.2 6.2-8.6 1.2-.6-2.2-3.4-4.4-7.2-5.2l-6.2-1.4 5-7.2c8.2-12 5.8-20.4-5.4-20.4-5.2 0-5.6-.4-3.6-4.2 6.6-12 27.8-27.6 38.2-27.8 4.6 0 5.4 1 6.6 8zm442.2-4.2c7.6 3.4 27 22.4 27 26.4 0 1-2.6 1.8-6 1.8-10.6 0-12.4 10.2-3.6 22.6l4 5.4-6.2 1.2c-4.4 1-6.6 2.8-7.4 6.2l-1.4 4.8-6.2-6c-9.2-9-21.2-7.8-21.2 2 0 6.8-4.4 6.2-12.2-1.4a61.3 61.3 0 0 1-16.8-30.4c-1.2-6.2-1.2-6.4 5.6-6.4 12.8 0 25.4-12 25.4-24.6 0-4.6.8-5.4 5.6-5.4 3 0 9 1.8 13.4 3.8zm109 2.2c0 13.4 10.6 24 23.8 24 5.8 0 6 .4 4.8 6.4a71.5 71.5 0 0 1-17.8 31.8c-3.8 3.6-7 6.2-7.2 5.6-.4-.4-2-3.6-3.6-6.8-4.2-8-11.6-8.8-19.6-2-6 5-6.2 5.2-8.4 1.2a11.9 11.9 0 0 0-7-5.4l-5-1.2 4-6.6c5.8-9.4 5.4-18.6-.8-20.2-2.8-.6-6-.6-7 .2-1.2.6-2.2-.2-2.2-1.8 0-4.4 20.6-24.8 28.4-28.2 3.6-1.6 9-2.8 12.2-3 4.8 0 5.4.8 5.4 6zm-616.6 31.4c-.4 3.2-.8 1-.8-4.4 0-5.6.4-8 .8-5.6.4 2.6.4 7 0 10zM790 729c0 3.8-.8 7-2 7-2.2 0-2.6-6-.8-10.8 2-5 2.8-3.8 2.8 3.8zm-540.8 40c3.6 2.8 7.6 8.2 8.8 12 2 6 1.8 8-1.4 13.4a32.1 32.1 0 0 1-17.8 14.4c-5.4 1.6-16.4-5.8-21.4-14.4-5-8.4-3.2-15.2 5.8-23.8 8.8-8.2 16.8-8.6 26-1.6zm549-1.6c3.2 2 7.8 7.4 10 12l4.2 8.6-4.6 6.4c-10.6 14.8-18.4 18-28.8 11.6-14.8-9.2-16.8-22.6-5.2-34.2 8.6-8.8 15-9.8 24.4-4.4zm-281.4 23.2c-1.6 4.4-8 4.4-9.6 0-2-5 4.6-9.6 8.2-6a5.7 5.7 0 0 1 1.4 6zM188 786c0 1.2-4.8 2-10.4 1.8-8.4-.2-9.6-.6-5.6-1.8 7.2-2.4 16-2.4 16 0zm116 0c4 1.2 2.8 1.6-5.4 1.8-5.6.2-11-.8-11.6-1.8-1.4-2.4 9.6-2.4 17 0zm434 0c0 1.2-5 1.8-11.4 1.8-11.2-.4-11.2-.4-3.6-1.8 12.2-2.2 15-2.2 15 0zm116 0c2.2 1.4.4 2-6.4 2-5.4 0-9.6-1-9.6-2 0-2.6 12-2.6 16 0zm-682 24c0 4 5.4 8 10.8 8 1.6 0 5.6-2.2 8.8-5 7.2-6 8.4-6.2 8.4-1 0 3.2 1.4 4 6 4 7 0 7.6 2.4 2 9.4-4.6 5.8-5.2 15-1.4 18.2 1.2 1.2 5 2.4 8 2.8l5.6.6-7.4 8.8c-9.8 11.4-23.8 20.2-32 20.2-5.8 0-6.4-.8-7.8-7.4-2-10.6-12.6-20.6-21.8-20.6-6.6 0-7.2-.6-7.2-5.6.2-8.2 6.6-20.6 15.6-30.2 8.2-8.6 12.4-9.4 12.4-2.2zm143 1.4c8.6 9 14.2 18.8 16 29.2 1.4 7.4 1.4 7.4-5.4 7.4-11 0-20 7.4-23.6 18.8l-2.8 9.6-8.6-1c-10.2-1-28.8-14.2-33.6-23.4-3-6-3-6 2.6-6 10.6 0 13.4-8.2 6.4-19-5.2-7.8-5-10.4.2-10.2 3.6.2 5.2-1.2 9.2-8.6.2-.4 3.2 1.6 6.6 4.6 3.4 2.8 7.8 5.2 9.6 5.2 5.2-.2 10.4-5 10.4-9.8 0-6.2 4.6-5.2 13 3.2zm406.4-3c.4 5 5.6 9.6 10.6 9.6 1.8 0 6.2-2.2 10-5 6.8-5 7-5 8.4-1 .8 2.4 3.2 4 6.2 4 6.8 0 7.8 1.8 3.6 7.8-8.6 12-6.8 22.2 3.8 22.2 3.4 0 6 1 6 2 0 3.8-19.8 22.2-27 25.2a46 46 0 0 1-13 2.8c-5 0-6-.8-6-4.8 0-6-7.8-17.4-14-20.6a29.8 29.8 0 0 0-11.4-2.6c-6.2 0-6.4-.2-5.2-7.6a49 49 0 0 1 15-27.6c9-9.8 12.6-11 13-4.4zm143 3a61.4 61.4 0 0 1 16.2 29c1.2 7.4 1 7.6-4.8 7.6a23.8 23.8 0 0 0-23.8 23c0 4.4-.8 5-7.6 5-9.2 0-23-8.2-32-19.2-3.6-4.2-6.4-8.4-6.4-9.2s2.8-1.6 6.4-2c9-.8 10.6-7.8 4.4-19-5.2-9-6-11.6-2.8-9.6 3.4 2.2 9.6-1 10.6-5.4 1.2-4 1.2-4 7.6 1.2 8.6 7.2 15.8 6.4 19.8-2.2 1.6-3.6 3.6-6.6 4.2-6.6.8 0 4.4 3.4 8.2 7.4zM502 828c2.4 11 2 18.2-1.2 35.6-1.6 8.2 3.4 16.4 10 16.4 12.8 0 16.8-7.2 12-21.4-3.6-10.4-3-29 1-39.4 2.2-5.6 2.4-5.6 6.4-2 2.4 2 7.6 9.6 11.8 16.8s12 17 17 22a46.3 46.3 0 0 1 17 39c0 27.2-7.6 48.4-23.4 65.2-10.4 11-14.2 12.6-9.6 3.8 7-13.6 1.6-36.2-10-42-3.2-1.6-8.8-5-12.4-7.6-7.4-5.2-11.2-5.6-14.8-1.2a53.5 53.5 0 0 1-12 7.8c-7.2 3.8-10 6.6-12.6 13-4 10-4 20-.4 29 4 9.4 1.2 8.8-8.6-1.6A90.6 90.6 0 0 1 448 898c0-18.6 2.6-25.8 14.2-38 5.6-6 14.2-17.4 19.2-25 10.8-16.6 14.6-21.2 16.6-20 .8.4 2.6 6.2 4 13zm-265.6 18.2-2 8.8-.2-11c-.2-7.8.4-10.2 2-8.6 1.4 1.4 1.6 4.8.2 10.8zm553.6-.8c0 5-.4 8.8-.8 8.4-1.6-2-2.6-17.8-1-17.8 1 0 1.8 4.2 1.8 9.4zm-495 54.2c9.6.6 14.6-.2 22.2-3.4 11.8-5.2 15.8-4.6 24.4 4.4l6.8 7-16.8 8c-35.2 17-51.6 33.6-68.2 68.4-5.4 11.6-11.4 23-13.4 25.4-3.4 4.4-3.6 4.2-8-10.8-4-13.6-4.2-16-1.8-23.2 2.4-7.4 2.4-8.2-2-11.6-8.8-7.2-16 3.2-10 14.4 1.6 3 1 6.6-2 15-2.4 6-4.2 12.8-4.2 15 0 9-5.6 1.4-19-25.4a402.3 402.3 0 0 0-17.2-32.6c-5-6.8-25.8-22.2-35.4-26.4-10.8-4.8-14-11.8-9.6-21.4 4.2-8.6 7.2-9.4 18.6-5.6 12.4 4.2 23.2 4 36.6-1l14.2-5c2.6-.8 3.8 1 5.6 8.6C220 916 230.6 934 236.2 934c3.2 0 15.6-23 18.8-35l3.6-12.8 11.8 6.4a55.8 55.8 0 0 0 24.6 7zm474-.2a84 84 0 0 0 15.6 31.4l4.8 6 6.4-8.8a98.4 98.4 0 0 0 10.8-23.4c3.2-11 5.2-14.6 7.4-13.8l14 5c13.6 5 26 5.2 38.6.8l9.8-3.4 3.6 4.8c5.4 7 7 15.4 3.8 19.4a40.6 40.6 0 0 1-11.2 6.8c-11.2 4.8-28.8 18-33.8 25-2 3.2-10 18.2-17.8 33.6-7.6 15.2-14.8 27.8-16 27.6-3.2-.4-9.2-24.8-7.6-32.4 1.6-9 1-12.4-2.8-15.4-7.4-5.8-13.8 5.6-8.6 15.6 3.2 5.6-7.4 35.2-11.2 31.4-1.4-1.4-8-13.4-14.4-26.6a173.7 173.7 0 0 0-21.4-34.6 173.6 173.6 0 0 0-50-34.6c-6-2.6-11-5.8-11-7.2 0-1.2 3.6-5.2 8.2-8.8l8.2-6.4 13 4.6a55.4 55.4 0 0 0 46.2-2.8c5.2-2.8 10-5 10.8-5 .8-.2 2.8 5 4.6 11.2zM114.4 922c-4 10-10.2 21.8-14 26.2S84.2 961.6 72 968.8c-12 7-29.2 18.4-38.2 25.2-20.4 15.4-24.2 17.2-19 9 9.6-15.4 22.4-30 47.2-55.2 22.6-22.6 29.6-28.4 43-35.4a549 549 0 0 1 16.4-8.4s-3 8.2-7 18zM380 911.4c21 7.8 26.6 16.4 20.8 30.6-8.2 19.4-36 34.6-45.6 24.8-8.4-8.4-6.2-20.2 6-32 10.6-10.4 11.4-17 3.4-25.8-4.4-4.6-4.6-5.4-1.6-4 2.2.8 9.8 3.8 17 6.4zm279.4-2.4c-8.4 8-7.4 15.6 3.8 25.8 7 6.6 9.4 10.2 10.2 16.4 1.8 14.6-10.8 23.4-24 16.6A82.3 82.3 0 0 1 625 946c-4-7.8-3.8-18.6.6-23.8 2.6-3.4 33-17.6 38.4-18.2.6 0-1.6 2.2-4.6 5zm262.6 4.8c13.4 7 20.8 12.8 34.8 27 28.8 29.4 55.4 61.8 52.8 64.4-.6.6-13.8-7.4-29.2-17.6s-33.6-22.2-40.6-26.6a83.2 83.2 0 0 1-18.2-16c-5.6-8-20.6-41.8-18-40.6l18.4 9.4zm-398.6 52.6 7.2 15.4-8 11.4a58.3 58.3 0 0 1-9.8 12.2c-1.2.4-6-4.6-10.6-11.2l-8.4-12 8.2-16.8c4.4-9.2 8-18 8-19.8 0-5.6 3-5.8 4.6-.2 1 3 5 12.6 8.8 21zM82 1018c0 3.6-4.4 4.4-7.4 1.4-4.2-4.2-1.6-8 3.6-5.4 2 1.2 3.8 3 3.8 4zm870-2.2c0 2.8-5.6 6.6-7.8 5.4-3.2-2-.2-7.2 4-7.2 2 0 3.8.8 3.8 1.8z"/></svg>
