<svg viewBox="0 0 530 530" xmlns="http://www.w3.org/2000/svg" width="530" height="530" opacity="0.2"><path d="M3 260.3c0 144.7 117.3 262 262 262s262-117.3 262-262c0-77.98-22.35-135.8-93.59-190.8-73.54 63.52-113.4 64.11-169.6 64.25-60.86.15-98.38-7.16-166.2-63.86-58.13 56.71-93.09 106.8-94.58 190.4z" fill="#fff"/><path d="M15 262c0 138.1 111.9 250 250 250s250-111.9 250-250c0-74.41-18.51-125.1-81.71-180-58.72 54.89-113.9 61.51-167.6 61.64-58.07.14-102.6-4.56-167.3-58.67-52.61 52.68-81.98 97.28-83.4 177z"/><path d="M502.4 265c0 129.7-106.3 234.9-237.4 234.9S55.9 394.7 46 350.6c182.3 90.8 267.1 37.14 303.1 6.78 46.15-38.85 91.6-95.3 84.72-254.7 39.81 24.51 68.61 108.5 68.61 162.4z" fill="#fff"/><path d="M100 108.04c63.33 50.51 129.9 53.68 165 53.66s109.9-4.07 168.2-56.27c.85 3.8-15.06 29.71-33.73 40.37-20.13 11.5-65.38 28.02-65.38 28.02s46.73-5.99 133.2-18.93c-1 3.59-16.53 24.58-34.64 22.31-6.47-.81-20.8.6-26.58 1.27-15.88 1.86-45.95 4.12-45.95 4.12 13.69 11.85 29.6 6.91 42.16 11.34 15.4 5.53 20.75-.35 39.24 6.34 30.05 10.86 22.43 21.83 64.78 29.01-3.09 21.27-58.94-1.57-67.03-5.08-1.08 14.97 69.16 40.46 69.16 40.46-14.1 17.13-45.37-5.06-62.67-12.7-20.72-9.29-25.12-12.74-54.74-28.8 58.83 50.28 116.5 84.5 116.5 84.5-15.02 12.43-64.94-21.12-75.96-28.38-18.16-12.25-43.9-34.28-52.38-39.5 16.21 32.75 95.46 90.5 95.46 90.5s-39.1 2.3-113.8-74.42c5.27 18.73 69.65 84.32 69.65 84.32s-42.13.15-87.33-78.14c19.97 50.7 51.58 88.16 51.58 88.16s-30.5-14.9-65.01-59.52c9.06 28.28 44.55 70 44.55 70s-18.7-3.67-43.13-28.99c2.59 15.67 15.56 38.18 15.56 38.18s-19.93-5.12-53.03-75.66c2.66 28.11 23.53 66.06 18.38 79.55-4.3 11.3-78.66 18.83-88.22 14.32-4.64-2.18-2.32-10.84-8.98-11.56-7.17-.77-12.96 4.88-18.97 9.94-4.92 4.14-15.34-.9-21.34-4.58-4.17-2.55-8.15-10.6-8.15-10.6s.26 9.31-4.28 11.6c-4.81 2.42-9.55-4.23-14.6-4.11-3.3.07-6.39 2.63-9.4 1.62-4.25-1.43-4.88-7.61-9.2-8.82-7.54-2.1-19.07 7.1-26.9 3.73 6.86-30.22-46.56-17.3-54.3-24.44-4.27-9.46-20.26-32.62-20.24-90.2.04-104.8 72.63-152.6 72.63-152.6z" stroke="#fff" stroke-width="3"/><g fill="#fff"><path d="M134.5 200.5c.71 1.5 1.61 2.93 2.52 4.32 1.72 2.93 3.88 5.53 6 8.17 1.54 1.65 2.5 3.62 3.4 5.66.97 2.67 2.03 5.34 3.23 7.92A754.6 754.6 0 00156.6 241c2.36 5 4.87 9.94 7.32 14.91 1.66 3.22 3.6 6.28 5.35 9.45 1.21 2.42 2.96 4.46 4.54 6.63 1.78 2.77 3.32 5.69 5.11 8.45 1.95 3.11 3.65 6.36 5.67 9.42 1.38 2.3 2.98 4.43 4.37 6.72 1.4 2.18 2.59 4.46 3.78 6.75-8.2 15.88-16.72 13.46-3.77-2.52 1.52-1.93 3.1-3.82 4.46-5.87a95 95 0 004.43-7.6c1.25-2.54 2.68-4.99 4.1-7.45 1.1-1.85 1.85-3.87 2.79-5.8.84-2.13 2.05-4.08 3.02-6.14 1-2.35 1.87-4.76 2.79-7.15a72.75 72.75 0 002.62-6.9 86.64 86.64 0 002.84-8.65c.79-2.96 1.93-5.8 2.76-8.74a72.1 72.1 0 011.93-6.94 48.94 48.94 0 001.42-4.95c.46-1.66.95-3.31 1.47-4.95.6-1.57 1.4-3.06 2.15-4.55.73-1.36 1.36-2.76 2.12-4.1.53-1.14 1.2-2.2 1.83-3.27.67-1.12 1.22-2.3 1.93-3.39.7-1.16 1.69-2.02 2.67-2.92.87-.63 1.76-1.24 2.66-1.83.38-.25.62-.65.91-1l17.98 1.11c-.3.5-.69.88-.94 1.41a8.3 8.3 0 01-2.75 1.95 8.45 8.45 0 00-2.63 2.42c-.8.96-1.33 2.1-1.96 3.18-.62 1.1-1.24 2.18-1.84 3.27a51.72 51.72 0 00-2.2 3.99c-.7 1.44-1.5 2.84-2.16 4.3-.57 1.57-.99 3.18-1.43 4.77-.41 1.77-1.05 3.46-1.55 5.2-.94 2.2-1.8 4.46-2.34 6.8-.9 2.9-1.88 5.79-2.76 8.7-.81 2.93-1.77 5.82-2.67 8.71a57.32 57.32 0 01-2.57 7.05c-1.02 2.38-1.92 4.8-2.86 7.2-.86 2.1-1.93 4.11-2.85 6.19-.92 2-1.77 4.06-2.95 5.93-1.4 2.48-3.13 4.78-4.3 7.4-1.35 2.6-2.72 5.18-4.2 7.7-1.26 2.2-2.95 4.1-4.48 6.1-1.47 1.87-2.96 3.73-4.22 5.77-1.12 1.7-2.6 3.12-3.65 4.87-.02.02-.82 1.05-.86 1.05-9.18.2-16.04 4.87-19.34-1.59l-1.2-3.3c-.67-1.55-1.22-3.14-1.95-4.66a47.65 47.65 0 00-3.59-6.56c-1.47-2.22-3-4.4-4.23-6.77-1.75-3.15-3.37-6.39-5.42-9.37-1.84-2.76-3.53-5.64-5.49-8.32a38 38 0 01-4.46-6.89 142.6 142.6 0 01-4.63-9.6c-2.18-5.03-4.65-9.94-7.07-14.87a238.15 238.15 0 00-7.47-14.37c-1.45-2.62-2.99-5.2-4.1-8a25.7 25.7 0 00-2.96-5.26c-1.95-2.79-4.04-5.48-6.06-8.22-1.2-1.55-2.48-3.05-3.39-4.8z"/><path d="M146.3 250.2c.82-.21 1.73-1.32 2.3-1.92 2.61-2.7 4.91-5.68 6.71-8.67a199.2 199.2 0 013.1-5.47c.96-1.51 1.68-3.17 2.6-4.71.91-1.48 1.84-2.95 2.79-4.4 1.05-1.57 2.08-3.15 3.12-4.72.82-1.36 1.75-2.64 2.6-3.97.63-1.05 1.36-2.04 2.02-3.07 1.19-2.2 2.07-4.3 3.1-6.36.28-.67.67-1.29 1.04-1.91.4-.6.69-1.25.97-1.9.3-.72.65-1.4.9-2.13.26-.55.42-1.15.76-1.65.38-.46.63-1.01 1.03-1.46.32-.4.63-.87 1.05-1.18.39-.44.85-.8 1.18-1.3 3.53-4.57.45-.82 16.04-.04.17 0 .21.27.32.4.4.51.76 1.03 1.1 1.58 1.08 1.52 2.19 3.02 3.22 4.57 1.29 1.9 2.48 3.86 3.82 5.72.94 1.34 1.98 2.6 3 3.88.74 1.05 1.56 2.04 2.27 3.11.73.97 1.41 1.98 2.2 2.91.69 1.05 1.68 1.86 2.36 2.91.54 1.02 1.37 1.83 1.99 2.8.56.8 1.28 1.46 1.82 2.28.68.85 1.26 1.78 1.9 2.67 7.64 15.9 16.47 18.03-4.3 19.47-.55-.78-1.18-1.5-1.7-2.12-.3-.55-.7-1.04-1.02-1.57a23.72 23.72 0 00-.95-1.22c-.4-.45-.65-1.01-1.06-1.45-.44-.56-.72-1.23-1.18-1.78a7.46 7.46 0 01-1.16-1.97c-.35-.7-.73-1.4-.99-2.15-.26-.61-.58-1.2-.84-1.82-.3-.68-.47-1.4-.75-2.09-.32-.82-.67-1.63-1.18-2.36-.65-.9-1.35-1.75-2.04-2.62a21.13 21.13 0 01-1.72-2.35 60.66 60.66 0 01-1.99-2.77c-.76-.93-1.48-1.9-2.25-2.82a42.67 42.67 0 01-2.24-3.03c-.74-1.01-1.46-2.04-2.17-3.07-.9-1.31-1.85-2.6-2.6-4.01-13.75-14.13 6.72-15.56-1.06-1.41-.2.16-.26.42-.37.62-.37.67-.69 1.38-1.01 2.07-.43.95-.75 1.77-1.26 2.57-.36.63-.66 1.29-1.1 1.87-.7 1.02-1.34 2.07-2.11 3.04-.9 1.4-2.1 2.55-2.97 3.97a246.5 246.5 0 00-3.02 4.71 87.71 87.71 0 00-2.71 4.37c-1 1.53-1.92 3.1-2.82 4.7a52.95 52.95 0 00-3.13 5.4c-.9 1.75-1.9 3.42-3.14 4.97-1.12 1.31-2.13 2.71-3.16 4.1a10.78 10.78 0 00-1.66 2.32z"/></g></svg>